<?xml version="1.0" encoding="utf-8"?>
<!-- Generator: Adobe Illustrator 23.0.3, SVG Export Plug-In . SVG Version: 6.00 Build 0)  -->
<svg version="1.1" id="Layer_1" xmlns="http://www.w3.org/2000/svg" xmlns:xlink="http://www.w3.org/1999/xlink" x="0px" y="0px"
	 viewBox="0 0 311.1 114.3" style="enable-background:new 0 0 311.1 114.3;" xml:space="preserve">
<style type="text/css">
	.st0{fill:#6900FF;}
	.st1{fill:#5E00F2;}
</style>
<g>
	<path class="st0" d="M107.3,0.6H126c12.4,0,21.7,8.8,21.7,21.4c0,11.9-9.9,21.4-21.7,21.4h-18.8V0.6z M126,37.2
		c8.4,0,14.8-6.7,14.8-15.3S134.5,6.7,126,6.7h-11.9v30.5H126z"/>
	<path class="st0" d="M153.4,31.1c0-7,6.1-12.8,13.1-12.8c7.6,0,13.1,5.2,13.1,12.8c0,7-6.1,12.8-13.1,12.8
		C158.9,43.9,153.4,38.7,153.4,31.1z M173.1,31.1c0-3.9-2.7-6.7-6.6-6.7c-3.8,0-6.6,2.8-6.6,6.7c0,3.8,2.8,6.7,6.6,6.7
		C170.4,37.8,173.1,34.8,173.1,31.1z"/>
	<path class="st0" d="M184.8,31.1c0-7.6,6.6-12.8,13.3-12.8c4.2,0,7.6,1.5,10,4.1c2.5-2.6,6.1-4.1,9.7-4.1c7.6,0,13,5.2,13,12.8
		v12.2h-6.6V31.1c0-3.9-2.8-6.7-6.6-6.7c-3.9,0-6.6,2.8-6.6,6.7v12.2h-6.6V31.1c0-3.9-2.7-6.7-6.6-6.7c-3.8,0-6.6,2.8-6.6,6.7v12.2
		h-6.6V31.1z"/>
	<path class="st0" d="M236,31.1c0-7,6.1-12.8,13.1-12.8c7.6,0,13.1,5.2,13.1,12.8v12.2h-6.5v-2.1c-1.5,1.6-4.2,2.7-7.3,2.7
		C241.1,43.9,236,38.7,236,31.1z M255.7,31.1c0-3.9-2.7-6.7-6.6-6.7c-3.8,0-6.6,2.8-6.6,6.7c0,3.8,2.8,6.7,6.6,6.7
		C253,37.8,255.7,34.8,255.7,31.1z"/>
	<path class="st0" d="M269.5,4c0-2.2,1.9-4,4.1-4s4,1.8,4,4s-1.8,4.1-4,4.1S269.5,6.2,269.5,4z M270.2,18.9h6.6v24.4h-6.6V18.9z"/>
	<path class="st0" d="M284.8,31.1c0-7.6,6.6-12.8,13.3-12.8c7.6,0,13,5.2,13,12.8v12.2h-6.6V31.1c0-3.9-2.7-6.7-6.6-6.7
		c-3.8,0-6.6,2.8-6.6,6.7v12.2h-6.6V31.1z"/>
	<path class="st0" d="M106.3,92.3c0-12.1,10.1-21.9,22.2-21.9c6.5,0,11.7,2.5,15.6,6.2l-4.7,4.7c-2.7-2.9-6.5-4.7-10.9-4.7
		c-8.7,0-15.1,7-15.1,15.7s6.5,15.7,15.1,15.7c6.5,0,11.7-4,14-9.6h-14v-6.1h22.1c0,12-10.1,21.9-22.1,21.9
		C115.5,114.3,106.3,105.4,106.3,92.3z"/>
	<path class="st0" d="M155.6,98.4c0-5.4,3.9-9.2,9.2-9.2h2.3v6.1h-1.9c-1.8,0-3.1,1.2-3.1,3.1v15.3h-6.6V98.4z"/>
	<path class="st0" d="M171.3,101.5c0-7,6.1-12.8,13.1-12.8c7.6,0,13.1,5.2,13.1,12.8v12.2h-6.5v-2.1c-1.5,1.6-4.2,2.7-7.3,2.7
		C176.5,114.3,171.3,109.1,171.3,101.5z M191,101.5c0-3.9-2.7-6.7-6.6-6.7c-3.8,0-6.6,2.8-6.6,6.7c0,3.8,2.8,6.7,6.6,6.7
		C188.3,108.2,191,105.3,191,101.5z"/>
	<path class="st0" d="M205.1,101.5V71h6.6v20.4c1.4-1.6,4.1-2.7,7.2-2.7c7.4,0,12.6,5.2,12.6,12.8c0,7-6.1,12.8-13.1,12.8
		C210.6,114.3,205.1,109.1,205.1,101.5z M224.8,101.5c0-3.9-2.7-6.7-6.6-6.7c-3.8,0-6.6,2.8-6.6,6.7c0,3.8,2.8,6.7,6.6,6.7
		C222.1,108.2,224.8,105.3,224.8,101.5z"/>
	<path class="st0" d="M237.7,101.5V71h6.6v20.4c1.4-1.6,4.1-2.7,7.2-2.7c7.4,0,12.6,5.2,12.6,12.8c0,7-6.1,12.8-13.1,12.8
		C243.3,114.3,237.7,109.1,237.7,101.5z M257.5,101.5c0-3.9-2.7-6.7-6.6-6.7c-3.8,0-6.6,2.8-6.6,6.7c0,3.8,2.8,6.7,6.6,6.7
		C254.8,108.2,257.5,105.3,257.5,101.5z"/>
	<path class="st0" d="M268,101.5c0-7,6.1-12.8,13.1-12.8c7.6,0,12.7,4.8,13.1,12.8v2.2h-19.8c0.8,2.9,3.4,4.9,6.7,4.9
		c2.1,0,3.3-0.6,5-2.2l4,4.1c-2.3,2.3-5.5,3.8-9,3.8C273.5,114.3,268,109.1,268,101.5z M287.8,98.7c-0.9-2.8-3.3-4.7-6.7-4.7
		c-3.3,0-5.6,2-6.6,4.7H287.8z"/>
	<path class="st0" d="M299.5,98.4c0-5.4,3.9-9.2,9.2-9.2h2.3v6.1h-1.9c-1.8,0-3.1,1.2-3.1,3.1v15.3h-6.6V98.4z"/>
</g>
<g>
	<path class="st1" d="M71.9,84.6c-1.5,1.5-3.1,2.9-4.7,4.1c0.9-7.5-1.5-15.3-7.2-21c-4.9-4.9-11.4-7.4-17.8-7.4
		c-6.5,0-12.9,2.5-17.8,7.4c-5.7,5.7-8.1,13.5-7.2,21c-1.6-1.2-3.2-2.6-4.7-4.1C1.4,73.7-2.3,58.2,1.3,44.3c1.8-7,5.5-13.7,11-19.2
		c16.4-16.5,43.1-16.5,59.5,0C88.3,41.5,88.3,68.2,71.9,84.6z"/>
	<circle class="st1" cx="42.1" cy="88.7" r="14.3"/>
</g>
</svg>
